<svg id="Capa_1" enable-background="new 0 0 512 512" height="512" viewBox="0 0 512 512" width="512" xmlns="http://www.w3.org/2000/svg"><g><g><path d="m437.744 470.855c-16.954 0-30.698-13.744-30.698-30.698v-175.799h-41.146v175.799c0 16.954-13.744 30.698-30.698 30.698h-.321c-17.043 0-30.859 13.816-30.859 30.859 0 5.681 4.605 10.286 10.286 10.286h144.008c5.681 0 10.286-4.605 10.286-10.286.001-17.043-13.815-30.859-30.858-30.859z" fill="#ffde83"/></g><g><path d="m355.453 470.855c-16.954 0-30.698-13.744-30.698-30.698v-175.799h-41.145v175.799c0 16.954-13.744 30.698-30.698 30.698h-.321c-17.043 0-30.859 13.816-30.859 30.859 0 5.681 4.605 10.286 10.286 10.286h144.008c5.681 0 10.286-4.605 10.286-10.286 0-17.043-13.816-30.859-30.859-30.859z" fill="#fff18f"/></g><g><path d="m365.74 397.565c-56.81 0-102.863-46.053-102.863-102.863v-92.577l102.863-109.548 102.863 109.549v92.577c0 56.809-46.054 102.862-102.863 102.862z" fill="#b77158"/></g><g><path d="m262.877 202.126c25.717 0 25.717-20.573 51.435-20.573s25.717 20.573 51.435 20.573c25.714 0 25.714-20.573 51.427-20.573 25.715 0 25.715 20.573 51.429 20.573v-99.263c0-56.81-46.054-102.863-102.863-102.863-56.81 0-102.863 46.053-102.863 102.863z" fill="#fff2cf"/></g><g><g><path d="m304.022 102.863c0-49.764 35.339-91.272 82.29-100.803-6.647-1.35-13.527-2.06-20.572-2.06-56.81 0-102.863 46.053-102.863 102.863v99.263c21.733 0 25.102-14.691 41.145-19.243 0-25.011 0-80.02 0-80.02z" fill="#ffe1bd"/></g></g><g><path d="m471.017 129.335c22.335-8.618 31.152 13.05 35.88 8.322 14.332-14.332-30.233-93.915-70.052-54.095-11.27 11.27-11.27 29.543 0 40.814 9.254 9.254 23.228 10.903 34.172 4.959z" fill="#ffde83"/></g><g><g><path d="m405.856 80.019c-4.143 0-7.5-3.358-7.5-7.5v-12.344c0-4.142 3.357-7.5 7.5-7.5s7.5 3.358 7.5 7.5v12.344c0 4.142-3.357 7.5-7.5 7.5z" fill="#3b4456"/></g></g><g><path d="m367.761 199.994c-46.285-46.285-121.328-46.285-167.612 0l-146.921 146.921c-8.034 8.034-8.034 21.06 0 29.094l2.214 2.214c.606.606 1.225 1.193 1.837 1.791l-48.894 48.893c-8.034 8.034-8.034 21.06 0 29.094 35.088 35.088 91.977 35.088 127.065 0l22.768-22.768c69.27 15.952 144.958-3.042 198.926-57.011l10.617-10.617c46.285-46.284 46.285-121.326 0-167.611z" fill="#db9e82"/></g><g><g><path d="m53.228 376.009 2.214 2.214c.606.606 1.225 1.193 1.836 1.791l-48.893 48.893c-8.034 8.034-8.034 21.06 0 29.094 35.088 35.088 91.977 35.088 127.065 0l22.768-22.768c69.27 15.952 144.958-3.042 198.927-57.01l10.617-10.617c-46.285 46.285-121.327 46.285-167.612 0s-46.285-121.328 0-167.612l-146.922 146.921c-8.034 8.034-8.034 21.059 0 29.094z" fill="#c8866a"/></g></g></g></svg>